ffmpeg started on 2026-04-01 at 12:18:22
Report written to "D:\Convert\FFMetrics\reports\psnr_report-6.txt"
Log level: 32
Command line:
ffmpeg -hide_banner -nostdin -r 24000/1001 -i "F:\\Convert\\files\\[DC] Make Heroine ga Oosugiru - 07_Telegram_HEVC(284).mkv" -r 24000/1001 -i "F:\\Convert\\files\\[DC] Make Heroine ga Oosugiru - 07_Telegram.mp4" -lavfi "[0:v]settb=AVTB,setpts=PTS-STARTPTS,format=pix_fmts=yuv420p10le,fps=24000/1001,scale=1920:1080:flags=lanczos:param0=3:out_range=limited:out_color_matrix=bt709:out_chroma_loc=left,setsar=1/1,setdar=(1920/1080)*(1/1),colorspace=format=yuv420p10:range=tv:primaries=bt709:trc=bt709:space=bt709:fast=0[main];[1:v]settb=AVTB,setpts=PTS-STARTPTS,format=pix_fmts=yuv420p,fps=24000/1001,scale=1920:1080:flags=lanczos:param0=3:out_range=limited:out_color_matrix=bt709:out_chroma_loc=left,setsar=1/1,setdar=(1920/1080)*(1/1),colorspace=format=yuv420p:range=tv:primaries=bt709:trc=bt709:space=bt709:fast=0[ref];[main][ref]psnr=eof_action=endall:stats_file='D\\:/Convert/FFMetrics/logs/psnr_logfile-6.txt'" -f null -
Input #0, matroska,webm, from 'F:\Convert\files\[DC] Make Heroine ga Oosugiru - 07_Telegram_HEVC(284).mkv':
  Metadata:
    COMPATIBLE_BRANDS: isomiso2avc1mp41
    MAJOR_BRAND     : isom
    MINOR_VERSION   : 512
    ENCODER         : Lavf61.7.100
  Duration: 00:24:06.79, start: -0.021000, bitrate: 981 kb/s
  Stream #0:0: Video: hevc (Main 10), yuv420p10le(tv, bt709, progressive), 1920x1080 [SAR 1:1 DAR 16:9], 23.98 fps, 23.98 tbr, 1k tbn (default)
      Metadata:
        HANDLER_NAME    : VideoHandler
        VENDOR_ID       : [0][0][0][0]
        ENCODER         : Lavc61.19.100 libx265
        BPS             : 784047
        DURATION        : 00:24:06.569708333
        NUMBER_OF_FRAMES: 34683
        NUMBER_OF_BYTES : 141772360
        _STATISTICS_WRITING_APP: mkvpropedit v94.0 ('Initiate') 64-bit
        _STATISTICS_WRITING_DATE_UTC: 2026-03-30 15:22:32
        _STATISTICS_TAGS: BPS DURATION NUMBER_OF_FRAMES NUMBER_OF_BYTES
  Stream #0:1: Audio: aac (LC), 48000 Hz, stereo, fltp (default)
      Metadata:
        HANDLER_NAME    : SoundHandler
        VENDOR_ID       : [0][0][0][0]
        ENCODER         : Lavc61.19.100 aac
        BPS             : 193194
        DURATION        : 00:24:06.784000000
        NUMBER_OF_FRAMES: 67819
        NUMBER_OF_BYTES : 34938755
        _STATISTICS_WRITING_APP: mkvpropedit v94.0 ('Initiate') 64-bit
        _STATISTICS_WRITING_DATE_UTC: 2026-03-30 15:22:32
        _STATISTICS_TAGS: BPS DURATION NUMBER_OF_FRAMES NUMBER_OF_BYTES
Input #1, mov,mp4,m4a,3gp,3g2,mj2, from 'F:\Convert\files\[DC] Make Heroine ga Oosugiru - 07_Telegram.mp4':
  Metadata:
    major_brand     : isom
    minor_version   : 512
    compatible_brands: isomiso2avc1mp41
    encoder         : Lavf60.16.100
  Duration: 00:24:06.74, start: 0.000000, bitrate: 3764 kb/s
  Stream #1:0[0x1](und): Video: h264 (High) (avc1 / 0x31637661), yuv420p(tv, bt709, progressive), 1920x1080 [SAR 1:1 DAR 16:9], 3616 kb/s, 23.98 fps, 23.98 tbr, 24k tbn (default)
      Metadata:
        handler_name    : VideoHandler
        vendor_id       : [0][0][0][0]
        encoder         : Lavc60.31.102 h264_qsv
  Stream #1:1[0x2](und): Audio: aac (HE-AACv2) (mp4a / 0x6134706D), 48000 Hz, stereo, fltp, 144 kb/s (default)
      Metadata:
        handler_name    : SoundHandler
        vendor_id       : [0][0][0][0]
Stream mapping:
  Stream #0:0 (hevc) -> settb:default
  Stream #1:0 (h264) -> settb:default
  psnr:default -> Stream #0:0 (wrapped_avframe)
  Stream #0:1 -> #0:1 (aac (native) -> pcm_s16le (native))
Output #0, null, to 'pipe:':
  Metadata:
    COMPATIBLE_BRANDS: isomiso2avc1mp41
    MAJOR_BRAND     : isom
    MINOR_VERSION   : 512
    encoder         : Lavf61.7.100
  Stream #0:0: Video: wrapped_avframe, yuv420p10le(tv, bt709, progressive), 1920x1080 [SAR 1:1 DAR 16:9], q=2-31, 200 kb/s, 23.98 fps, 23.98 tbn
      Metadata:
        encoder         : Lavc61.19.100 wrapped_avframe
  Stream #0:1: Audio: pcm_s16le, 48000 Hz, stereo, s16, 1536 kb/s (default)
      Metadata:
        HANDLER_NAME    : SoundHandler
        VENDOR_ID       : [0][0][0][0]
        _STATISTICS_TAGS: BPS DURATION NUMBER_OF_FRAMES NUMBER_OF_BYTES
        BPS             : 193194
        DURATION        : 00:24:06.784000000
        NUMBER_OF_FRAMES: 67819
        NUMBER_OF_BYTES : 34938755
        _STATISTICS_WRITING_APP: mkvpropedit v94.0 ('Initiate') 64-bit
        _STATISTICS_WRITING_DATE_UTC: 2026-03-30 15:22:32
        encoder         : Lavc61.19.100 pcm_s16le
frame=  129 fps=0.0 q=-0.0 size=N/A time=00:00:05.38 bitrate=N/A speed=10.4x    frame=  329 fps=320 q=-0.0 size=N/A time=00:00:13.72 bitrate=N/A speed=13.4x    frame=  527 fps=343 q=-0.0 size=N/A time=00:00:21.98 bitrate=N/A speed=14.3x    frame=  732 fps=354 q=-0.0 size=N/A time=00:00:30.53 bitrate=N/A speed=14.8x    frame=  911 fps=353 q=-0.0 size=N/A time=00:00:37.99 bitrate=N/A speed=14.7x    frame= 1058 fps=343 q=-0.0 size=N/A time=00:00:44.12 bitrate=N/A speed=14.3x    frame= 1214 fps=337 q=-0.0 size=N/A time=00:00:50.63 bitrate=N/A speed=14.1x    frame= 1384 fps=335 q=-0.0 size=N/A time=00:00:57.72 bitrate=N/A speed=  14x    frame= 1539 fps=332 q=-0.0 size=N/A time=00:01:04.18 bitrate=N/A speed=13.8x    frame= 1682 fps=327 q=-0.0 size=N/A time=00:01:10.15 bitrate=N/A speed=13.6x    frame= 1858 fps=327 q=-0.0 size=N/A time=00:01:17.49 bitrate=N/A speed=13.7x    frame= 2032 fps=328 q=-0.0 size=N/A time=00:01:24.75 bitrate=N/A speed=13.7x    frame= 2134 fps=319 q=-0.0 size=N/A time=00:01:29.00 bitrate=N/A speed=13.3x    frame= 2287 fps=317 q=-0.0 size=N/A time=00:01:35.38 bitrate=N/A speed=13.2x    frame= 2432 fps=314 q=-0.0 size=N/A time=00:01:41.43 bitrate=N/A speed=13.1x    frame= 2563 fps=311 q=-0.0 size=N/A time=00:01:46.89 bitrate=N/A speed=  13x    frame= 2736 fps=312 q=-0.0 size=N/A time=00:01:54.11 bitrate=N/A speed=  13x    frame= 2905 fps=313 q=-0.0 size=N/A time=00:02:01.16 bitrate=N/A speed=13.1x    frame= 3100 fps=316 q=-0.0 size=N/A time=00:02:09.29 bitrate=N/A speed=13.2x    frame= 3304 fps=321 q=-0.0 size=N/A time=00:02:17.80 bitrate=N/A speed=13.4x    frame= 3518 fps=325 q=-0.0 size=N/A time=00:02:26.72 bitrate=N/A speed=13.5x    frame= 3711 fps=327 q=-0.0 size=N/A time=00:02:34.77 bitrate=N/A speed=13.6x    frame= 3918 fps=330 q=-0.0 size=N/A time=00:02:43.41 bitrate=N/A speed=13.8x    frame= 4122 fps=333 q=-0.0 size=N/A time=00:02:51.92 bitrate=N/A speed=13.9x    frame= 4323 fps=335 q=-0.0 size=N/A time=00:03:00.30 bitrate=N/A speed=  14x    frame= 4522 fps=337 q=-0.0 size=N/A time=00:03:08.60 bitrate=N/A speed=14.1x    frame= 4711 fps=339 q=-0.0 size=N/A time=00:03:16.48 bitrate=N/A speed=14.1x    frame= 4909 fps=340 q=-0.0 size=N/A time=00:03:24.74 bitrate=N/A speed=14.2x    frame= 5104 fps=341 q=-0.0 size=N/A time=00:03:32.87 bitrate=N/A speed=14.2x    frame= 5298 fps=343 q=-0.0 size=N/A time=00:03:40.97 bitrate=N/A speed=14.3x    frame= 5499 fps=344 q=-0.0 size=N/A time=00:03:49.35 bitrate=N/A speed=14.3x    frame= 5698 fps=345 q=-0.0 size=N/A time=00:03:57.65 bitrate=N/A speed=14.4x    frame= 5898 fps=347 q=-0.0 size=N/A time=00:04:05.99 bitrate=N/A speed=14.5x    frame= 6105 fps=348 q=-0.0 size=N/A time=00:04:14.62 bitrate=N/A speed=14.5x    frame= 6301 fps=349 q=-0.0 size=N/A time=00:04:22.80 bitrate=N/A speed=14.6x    frame= 6495 fps=350 q=-0.0 size=N/A time=00:04:30.89 bitrate=N/A speed=14.6x    frame= 6706 fps=351 q=-0.0 size=N/A time=00:04:39.69 bitrate=N/A speed=14.7x    frame= 6912 fps=353 q=-0.0 size=N/A time=00:04:48.28 bitrate=N/A speed=14.7x    frame= 7101 fps=353 q=-0.0 size=N/A time=00:04:56.17 bitrate=N/A speed=14.7x    frame= 7306 fps=354 q=-0.0 size=N/A time=00:05:04.72 bitrate=N/A speed=14.8x    frame= 7500 fps=355 q=-0.0 size=N/A time=00:05:12.81 bitrate=N/A speed=14.8x    frame= 7679 fps=355 q=-0.0 size=N/A time=00:05:20.27 bitrate=N/A speed=14.8x    frame= 7880 fps=355 q=-0.0 size=N/A time=00:05:28.66 bitrate=N/A speed=14.8x    frame= 8074 fps=356 q=-0.0 size=N/A time=00:05:36.75 bitrate=N/A speed=14.8x    frame= 8269 fps=357 q=-0.0 size=N/A time=00:05:44.88 bitrate=N/A speed=14.9x    frame= 8476 fps=357 q=-0.0 size=N/A time=00:05:53.51 bitrate=N/A speed=14.9x    frame= 8674 fps=358 q=-0.0 size=N/A time=00:06:01.77 bitrate=N/A speed=14.9x    frame= 8869 fps=358 q=-0.0 size=N/A time=00:06:09.91 bitrate=N/A speed=  15x    frame= 9063 fps=359 q=-0.0 size=N/A time=00:06:18.00 bitrate=N/A speed=  15x    frame= 9265 fps=359 q=-0.0 size=N/A time=00:06:26.42 bitrate=N/A speed=  15x    frame= 9458 fps=360 q=-0.0 size=N/A time=00:06:34.47 bitrate=N/A speed=  15x    frame= 9661 fps=360 q=-0.0 size=N/A time=00:06:42.94 bitrate=N/A speed=  15x    frame= 9860 fps=361 q=-0.0 size=N/A time=00:06:51.24 bitrate=N/A speed=  15x    frame=10054 fps=361 q=-0.0 size=N/A time=00:06:59.33 bitrate=N/A speed=15.1x    frame=10256 fps=362 q=-0.0 size=N/A time=00:07:07.76 bitrate=N/A speed=15.1x    frame=10456 fps=362 q=-0.0 size=N/A time=00:07:16.10 bitrate=N/A speed=15.1x    frame=10649 fps=362 q=-0.0 size=N/A time=00:07:24.15 bitrate=N/A speed=15.1x    frame=10842 fps=363 q=-0.0 size=N/A time=00:07:32.20 bitrate=N/A speed=15.1x    frame=11041 fps=363 q=-0.0 size=N/A time=00:07:40.50 bitrate=N/A speed=15.1x    frame=11230 fps=363 q=-0.0 size=N/A time=00:07:48.38 bitrate=N/A speed=15.1x    frame=11430 fps=363 q=-0.0 size=N/A time=00:07:56.72 bitrate=N/A speed=15.2x    frame=11628 fps=364 q=-0.0 size=N/A time=00:08:04.98 bitrate=N/A speed=15.2x    frame=11824 fps=364 q=-0.0 size=N/A time=00:08:13.15 bitrate=N/A speed=15.2x    frame=12023 fps=364 q=-0.0 size=N/A time=00:08:21.45 bitrate=N/A speed=15.2x    frame=12229 fps=365 q=-0.0 size=N/A time=00:08:30.05 bitrate=N/A speed=15.2x    frame=12425 fps=365 q=-0.0 size=N/A time=00:08:38.22 bitrate=N/A speed=15.2x    frame=12628 fps=366 q=-0.0 size=N/A time=00:08:46.69 bitrate=N/A speed=15.2x    frame=12836 fps=366 q=-0.0 size=N/A time=00:08:55.36 bitrate=N/A speed=15.3x    frame=13034 fps=366 q=-0.0 size=N/A time=00:09:03.62 bitrate=N/A speed=15.3x    frame=13234 fps=367 q=-0.0 size=N/A time=00:09:11.96 bitrate=N/A speed=15.3x    frame=13425 fps=367 q=-0.0 size=N/A time=00:09:19.93 bitrate=N/A speed=15.3x    frame=13619 fps=367 q=-0.0 size=N/A time=00:09:28.02 bitrate=N/A speed=15.3x    frame=13821 fps=367 q=-0.0 size=N/A time=00:09:36.45 bitrate=N/A speed=15.3x    frame=14012 fps=367 q=-0.0 size=N/A time=00:09:44.41 bitrate=N/A speed=15.3x    frame=14195 fps=367 q=-0.0 size=N/A time=00:09:52.04 bitrate=N/A speed=15.3x    frame=14391 fps=367 q=-0.0 size=N/A time=00:10:00.22 bitrate=N/A speed=15.3x    frame=14583 fps=367 q=-0.0 size=N/A time=00:10:08.23 bitrate=N/A speed=15.3x    frame=14776 fps=367 q=-0.0 size=N/A time=00:10:16.28 bitrate=N/A speed=15.3x    frame=14971 fps=368 q=-0.0 size=N/A time=00:10:24.41 bitrate=N/A speed=15.3x    frame=15140 fps=367 q=-0.0 size=N/A time=00:10:31.46 bitrate=N/A speed=15.3x    frame=15329 fps=367 q=-0.0 size=N/A time=00:10:39.34 bitrate=N/A speed=15.3x    frame=15522 fps=367 q=-0.0 size=N/A time=00:10:47.39 bitrate=N/A speed=15.3x    frame=15709 fps=367 q=-0.0 size=N/A time=00:10:55.19 bitrate=N/A speed=15.3x    frame=15919 fps=368 q=-0.0 size=N/A time=00:11:03.95 bitrate=N/A speed=15.3x    frame=16119 fps=368 q=-0.0 size=N/A time=00:11:12.29 bitrate=N/A speed=15.3x    frame=16313 fps=368 q=-0.0 size=N/A time=00:11:20.38 bitrate=N/A speed=15.3x    frame=16518 fps=368 q=-0.0 size=N/A time=00:11:28.93 bitrate=N/A speed=15.4x    frame=16704 fps=368 q=-0.0 size=N/A time=00:11:36.69 bitrate=N/A speed=15.4x    frame=16908 fps=369 q=-0.0 size=N/A time=00:11:45.20 bitrate=N/A speed=15.4x    frame=17109 fps=369 q=-0.0 size=N/A time=00:11:53.58 bitrate=N/A speed=15.4x    frame=17311 fps=369 q=-0.0 size=N/A time=00:12:02.01 bitrate=N/A speed=15.4x    frame=17507 fps=369 q=-0.0 size=N/A time=00:12:10.18 bitrate=N/A speed=15.4x    frame=17698 fps=369 q=-0.0 size=N/A time=00:12:18.15 bitrate=N/A speed=15.4x    frame=17892 fps=369 q=-0.0 size=N/A time=00:12:26.24 bitrate=N/A speed=15.4x    frame=18096 fps=369 q=-0.0 size=N/A time=00:12:34.75 bitrate=N/A speed=15.4x    frame=18289 fps=369 q=-0.0 size=N/A time=00:12:42.80 bitrate=N/A speed=15.4x    frame=18474 fps=369 q=-0.0 size=N/A time=00:12:50.51 bitrate=N/A speed=15.4x    frame=18677 fps=370 q=-0.0 size=N/A time=00:12:58.98 bitrate=N/A speed=15.4x    frame=18884 fps=370 q=-0.0 size=N/A time=00:13:07.62 bitrate=N/A speed=15.4x    frame=19083 fps=370 q=-0.0 size=N/A time=00:13:15.92 bitrate=N/A speed=15.4x    frame=19292 fps=370 q=-0.0 size=N/A time=00:13:24.63 bitrate=N/A speed=15.5x    frame=19499 fps=371 q=-0.0 size=N/A time=00:13:33.27 bitrate=N/A speed=15.5x    frame=19689 fps=371 q=-0.0 size=N/A time=00:13:41.19 bitrate=N/A speed=15.5x    frame=19889 fps=371 q=-0.0 size=N/A time=00:13:49.53 bitrate=N/A speed=15.5x    frame=20110 fps=371 q=-0.0 size=N/A time=00:13:58.75 bitrate=N/A speed=15.5x    frame=20313 fps=372 q=-0.0 size=N/A time=00:14:07.22 bitrate=N/A speed=15.5x    frame=20488 fps=371 q=-0.0 size=N/A time=00:14:14.52 bitrate=N/A speed=15.5x    frame=20671 fps=371 q=-0.0 size=N/A time=00:14:22.15 bitrate=N/A speed=15.5x    frame=20882 fps=371 q=-0.0 size=N/A time=00:14:30.95 bitrate=N/A speed=15.5x    frame=21091 fps=372 q=-0.0 size=N/A time=00:14:39.67 bitrate=N/A speed=15.5x    frame=21285 fps=372 q=-0.0 size=N/A time=00:14:47.76 bitrate=N/A speed=15.5x    frame=21488 fps=372 q=-0.0 size=N/A time=00:14:56.22 bitrate=N/A speed=15.5x    frame=21694 fps=372 q=-0.0 size=N/A time=00:15:04.82 bitrate=N/A speed=15.5x    frame=21898 fps=372 q=-0.0 size=N/A time=00:15:13.32 bitrate=N/A speed=15.5x    frame=22097 fps=373 q=-0.0 size=N/A time=00:15:21.62 bitrate=N/A speed=15.5x    frame=22302 fps=373 q=-0.0 size=N/A time=00:15:30.17 bitrate=N/A speed=15.5x    frame=22504 fps=373 q=-0.0 size=N/A time=00:15:38.60 bitrate=N/A speed=15.6x    frame=22701 fps=373 q=-0.0 size=N/A time=00:15:46.82 bitrate=N/A speed=15.6x    frame=22898 fps=373 q=-0.0 size=N/A time=00:15:55.03 bitrate=N/A speed=15.6x    frame=23101 fps=373 q=-0.0 size=N/A time=00:16:03.50 bitrate=N/A speed=15.6x    frame=23286 fps=373 q=-0.0 size=N/A time=00:16:11.22 bitrate=N/A speed=15.6x    frame=23493 fps=373 q=-0.0 size=N/A time=00:16:19.85 bitrate=N/A speed=15.6x    frame=23696 fps=374 q=-0.0 size=N/A time=00:16:28.32 bitrate=N/A speed=15.6x    frame=23899 fps=374 q=-0.0 size=N/A time=00:16:36.78 bitrate=N/A speed=15.6x    frame=24107 fps=374 q=-0.0 size=N/A time=00:16:45.46 bitrate=N/A speed=15.6x    frame=24294 fps=374 q=-0.0 size=N/A time=00:16:53.26 bitrate=N/A speed=15.6x    frame=24497 fps=374 q=-0.0 size=N/A time=00:17:01.72 bitrate=N/A speed=15.6x    frame=24697 fps=374 q=-0.0 size=N/A time=00:17:10.07 bitrate=N/A speed=15.6x    frame=24903 fps=374 q=-0.0 size=N/A time=00:17:18.66 bitrate=N/A speed=15.6x    frame=25105 fps=374 q=-0.0 size=N/A time=00:17:27.08 bitrate=N/A speed=15.6x    frame=25307 fps=375 q=-0.0 size=N/A time=00:17:35.51 bitrate=N/A speed=15.6x    frame=25508 fps=375 q=-0.0 size=N/A time=00:17:43.89 bitrate=N/A speed=15.6x    frame=25707 fps=375 q=-0.0 size=N/A time=00:17:52.19 bitrate=N/A speed=15.6x    frame=25908 fps=375 q=-0.0 size=N/A time=00:18:00.57 bitrate=N/A speed=15.6x    frame=26109 fps=375 q=-0.0 size=N/A time=00:18:08.96 bitrate=N/A speed=15.6x    frame=26309 fps=375 q=-0.0 size=N/A time=00:18:17.30 bitrate=N/A speed=15.6x    frame=26516 fps=375 q=-0.0 size=N/A time=00:18:25.93 bitrate=N/A speed=15.7x    frame=26714 fps=375 q=-0.0 size=N/A time=00:18:34.19 bitrate=N/A speed=15.7x    frame=26906 fps=375 q=-0.0 size=N/A time=00:18:42.20 bitrate=N/A speed=15.7x    frame=27092 fps=375 q=-0.0 size=N/A time=00:18:49.96 bitrate=N/A speed=15.6x    frame=27274 fps=375 q=-0.0 size=N/A time=00:18:57.55 bitrate=N/A speed=15.6x    frame=27463 fps=375 q=-0.0 size=N/A time=00:19:05.43 bitrate=N/A speed=15.6x    frame=27662 fps=375 q=-0.0 size=N/A time=00:19:13.73 bitrate=N/A speed=15.6x    frame=27857 fps=375 q=-0.0 size=N/A time=00:19:21.86 bitrate=N/A speed=15.6x    frame=28044 fps=375 q=-0.0 size=N/A time=00:19:29.66 bitrate=N/A speed=15.6x    frame=28238 fps=375 q=-0.0 size=N/A time=00:19:37.75 bitrate=N/A speed=15.6x    frame=28435 fps=375 q=-0.0 size=N/A time=00:19:45.97 bitrate=N/A speed=15.6x    frame=28626 fps=375 q=-0.0 size=N/A time=00:19:53.94 bitrate=N/A speed=15.6x    frame=28806 fps=375 q=-0.0 size=N/A time=00:20:01.45 bitrate=N/A speed=15.6x    frame=28979 fps=375 q=-0.0 size=N/A time=00:20:08.66 bitrate=N/A speed=15.6x    frame=29162 fps=374 q=-0.0 size=N/A time=00:20:16.29 bitrate=N/A speed=15.6x    frame=29348 fps=374 q=-0.0 size=N/A time=00:20:24.05 bitrate=N/A speed=15.6x    frame=29517 fps=374 q=-0.0 size=N/A time=00:20:31.10 bitrate=N/A speed=15.6x    frame=29699 fps=374 q=-0.0 size=N/A time=00:20:38.69 bitrate=N/A speed=15.6x    frame=29872 fps=374 q=-0.0 size=N/A time=00:20:45.91 bitrate=N/A speed=15.6x    frame=30033 fps=373 q=-0.0 size=N/A time=00:20:52.62 bitrate=N/A speed=15.6x    frame=30229 fps=373 q=-0.0 size=N/A time=00:21:00.80 bitrate=N/A speed=15.6x    frame=30425 fps=373 q=-0.0 size=N/A time=00:21:08.97 bitrate=N/A speed=15.6x    frame=30617 fps=373 q=-0.0 size=N/A time=00:21:16.98 bitrate=N/A speed=15.6x    frame=30815 fps=373 q=-0.0 size=N/A time=00:21:25.24 bitrate=N/A speed=15.6x    frame=31011 fps=373 q=-0.0 size=N/A time=00:21:33.41 bitrate=N/A speed=15.6x    frame=31207 fps=373 q=-0.0 size=N/A time=00:21:41.59 bitrate=N/A speed=15.6x    frame=31398 fps=373 q=-0.0 size=N/A time=00:21:49.55 bitrate=N/A speed=15.6x    frame=31592 fps=373 q=-0.0 size=N/A time=00:21:57.64 bitrate=N/A speed=15.6x    frame=31780 fps=373 q=-0.0 size=N/A time=00:22:05.49 bitrate=N/A speed=15.6x    frame=31960 fps=373 q=-0.0 size=N/A time=00:22:12.99 bitrate=N/A speed=15.6x    frame=32146 fps=373 q=-0.0 size=N/A time=00:22:20.75 bitrate=N/A speed=15.6x    frame=32344 fps=373 q=-0.0 size=N/A time=00:22:29.01 bitrate=N/A speed=15.6x    frame=32544 fps=373 q=-0.0 size=N/A time=00:22:37.35 bitrate=N/A speed=15.6x    frame=32704 fps=373 q=-0.0 size=N/A time=00:22:44.02 bitrate=N/A speed=15.6x    frame=32854 fps=372 q=-0.0 size=N/A time=00:22:50.28 bitrate=N/A speed=15.5x    frame=33045 fps=372 q=-0.0 size=N/A time=00:22:58.25 bitrate=N/A speed=15.5x    frame=33235 fps=372 q=-0.0 size=N/A time=00:23:06.17 bitrate=N/A speed=15.5x    frame=33407 fps=372 q=-0.0 size=N/A time=00:23:13.35 bitrate=N/A speed=15.5x    frame=33560 fps=372 q=-0.0 size=N/A time=00:23:19.73 bitrate=N/A speed=15.5x    frame=33714 fps=371 q=-0.0 size=N/A time=00:23:26.15 bitrate=N/A speed=15.5x    frame=33835 fps=371 q=-0.0 size=N/A time=00:23:31.20 bitrate=N/A speed=15.5x    frame=33981 fps=370 q=-0.0 size=N/A time=00:23:37.29 bitrate=N/A speed=15.4x    frame=34144 fps=370 q=-0.0 size=N/A time=00:23:44.08 bitrate=N/A speed=15.4x    frame=34290 fps=369 q=-0.0 size=N/A time=00:23:50.17 bitrate=N/A speed=15.4x    frame=34416 fps=369 q=-0.0 size=N/A time=00:23:55.43 bitrate=N/A speed=15.4x    frame=34589 fps=368 q=-0.0 size=N/A time=00:24:02.64 bitrate=N/A speed=15.4x    [Parsed_psnr_16 @ 00000186449055c0] PSNR y:48.952211 u:50.318107 v:50.373594 average:49.368942 min:38.028553 max:inf
[out#0/null @ 0000018637bedec0] video:14903KiB audio:271276KiB subtitle:0KiB other streams:0KiB global headers:0KiB muxing overhead: unknown
frame=34683 fps=368 q=-0.0 Lsize=N/A time=00:24:06.57 bitrate=N/A speed=15.4x    
